<svg xmlns="http://www.w3.org/2000/svg" xmlns:xlink="http://www.w3.org/1999/xlink" width="200" zoomAndPan="magnify" viewBox="0 0 150 74.999997" height="100" preserveAspectRatio="xMidYMid meet" version="1.0"><defs><g/><clipPath id="a7887104ec"><path d="M 0.480469 12 L 19 12 L 19 42 L 0.480469 42 Z M 0.480469 12 " clip-rule="nonzero"/></clipPath><clipPath id="d8c69c70b0"><rect x="0" width="150" y="0" height="52"/></clipPath></defs><g transform="matrix(1, 0, 0, 1, 0, 10)"><g clip-path="url(#d8c69c70b0)"><g clip-path="url(#a7887104ec)"><g fill="#004aad" fill-opacity="1"><g transform="translate(0.628716, 40.725549)"><g><path d="M 17.40625 -24.328125 C 17.40625 -24.296875 17.351562 -24.222656 17.25 -24.109375 C 17.144531 -24.003906 17.019531 -23.84375 16.875 -23.625 C 16.4375 -23.125 15.929688 -22.53125 15.359375 -21.84375 C 13.953125 -20.21875 12.421875 -18.414062 10.765625 -16.4375 L 9.40625 -14.875 L 10.390625 -14.984375 C 11.722656 -15.160156 12.945312 -15.320312 14.0625 -15.46875 C 14.5625 -15.539062 14.972656 -15.59375 15.296875 -15.625 C 15.554688 -15.664062 15.722656 -15.6875 15.796875 -15.6875 L 16.4375 -10.4375 C 16.40625 -10.4375 16.257812 -10.421875 16 -10.390625 C 15.644531 -10.347656 15.234375 -10.289062 14.765625 -10.21875 C 13.648438 -10.070312 12.40625 -9.910156 11.03125 -9.734375 L 10.875 -9.734375 L 11.1875 -9.40625 C 12.925781 -7.894531 14.53125 -6.488281 16 -5.1875 C 16.613281 -4.644531 17.140625 -4.175781 17.578125 -3.78125 C 17.753906 -3.601562 17.898438 -3.476562 18.015625 -3.40625 L 18.171875 -3.25 L 14.65625 0.703125 L 14.5 0.59375 C 14.382812 0.488281 14.238281 0.363281 14.0625 0.21875 L 12.484375 -1.1875 C 11.015625 -2.488281 9.410156 -3.914062 7.671875 -5.46875 L 4.109375 -8.59375 L 0.046875 -12 C 0.046875 -12.039062 0.101562 -12.113281 0.21875 -12.21875 L 0.59375 -12.703125 L 2.109375 -14.5 C 3.515625 -16.113281 5.046875 -17.914062 6.703125 -19.90625 C 8.359375 -21.851562 9.890625 -23.65625 11.296875 -25.3125 C 11.878906 -26 12.382812 -26.59375 12.8125 -27.09375 C 13 -27.269531 13.144531 -27.429688 13.25 -27.578125 L 13.40625 -27.734375 Z M 17.40625 -24.328125 "/></g></g></g></g><g fill="#004aad" fill-opacity="1"><g transform="translate(21.878309, 40.725549)"><g><path d="M 4.4375 -14.8125 L 7.296875 -17.09375 C 7.367188 -17.164062 7.425781 -17.203125 7.46875 -17.203125 C 7.03125 -17.523438 6.019531 -18.207031 4.4375 -19.25 Z M 4.4375 -8.4375 L 4.4375 0.109375 L 0 0.109375 L 0 -28.9375 L 12.0625 -20.8125 L 16.765625 -17.6875 Z M 4.4375 -8.4375 "/></g></g></g><g fill="#004aad" fill-opacity="1"><g transform="translate(41.667991, 40.725549)"><g><path d="M -1.453125 -0.703125 L 8.328125 -27.46875 L 15.40625 -13.515625 L 15.6875 -14.21875 L 15.6875 -14.28125 L 22.015625 -29.796875 L 32.015625 -3.078125 L 27.640625 -1.5625 L 21.90625 -16.28125 L 19.625 -10.546875 L 15.296875 0.328125 L 8.546875 -13.953125 L 2.921875 0.859375 Z M -1.453125 -0.703125 "/></g></g></g><g fill="#004aad" fill-opacity="1"><g transform="translate(76.705608, 40.725549)"><g><path d="M 17.40625 -24.328125 C 17.40625 -24.296875 17.351562 -24.222656 17.25 -24.109375 C 17.144531 -24.003906 17.019531 -23.84375 16.875 -23.625 C 16.4375 -23.125 15.929688 -22.53125 15.359375 -21.84375 C 13.953125 -20.21875 12.421875 -18.414062 10.765625 -16.4375 L 9.40625 -14.875 L 10.390625 -14.984375 C 11.722656 -15.160156 12.945312 -15.320312 14.0625 -15.46875 C 14.5625 -15.539062 14.972656 -15.59375 15.296875 -15.625 C 15.554688 -15.664062 15.722656 -15.6875 15.796875 -15.6875 L 16.4375 -10.4375 C 16.40625 -10.4375 16.257812 -10.421875 16 -10.390625 C 15.644531 -10.347656 15.234375 -10.289062 14.765625 -10.21875 C 13.648438 -10.070312 12.40625 -9.910156 11.03125 -9.734375 L 10.875 -9.734375 L 11.1875 -9.40625 C 12.925781 -7.894531 14.53125 -6.488281 16 -5.1875 C 16.613281 -4.644531 17.140625 -4.175781 17.578125 -3.78125 C 17.753906 -3.601562 17.898438 -3.476562 18.015625 -3.40625 L 18.171875 -3.25 L 14.65625 0.703125 L 14.5 0.59375 C 14.382812 0.488281 14.238281 0.363281 14.0625 0.21875 L 12.484375 -1.1875 C 11.015625 -2.488281 9.410156 -3.914062 7.671875 -5.46875 L 4.109375 -8.59375 L 0.046875 -12 C 0.046875 -12.039062 0.101562 -12.113281 0.21875 -12.21875 L 0.59375 -12.703125 L 2.109375 -14.5 C 3.515625 -16.113281 5.046875 -17.914062 6.703125 -19.90625 C 8.359375 -21.851562 9.890625 -23.65625 11.296875 -25.3125 C 11.878906 -26 12.382812 -26.59375 12.8125 -27.09375 C 13 -27.269531 13.144531 -27.429688 13.25 -27.578125 L 13.40625 -27.734375 Z M 17.40625 -24.328125 "/></g></g></g><g fill="#004aad" fill-opacity="1"><g transform="translate(97.955201, 40.725549)"><g><path d="M 5.296875 -24.5 L 5.296875 -6.546875 C 5.296875 -6.003906 5.304688 -5.535156 5.328125 -5.140625 C 5.347656 -4.742188 5.359375 -4.398438 5.359375 -4.109375 L 5.359375 -3.1875 L 0.21875 -3.1875 L 0.21875 -4.109375 C 0.21875 -4.398438 0.207031 -4.742188 0.1875 -5.140625 C 0.164062 -5.535156 0.15625 -5.984375 0.15625 -6.484375 L 0.15625 -24.4375 Z M 5.296875 -24.5 "/></g></g></g><g fill="#004aad" fill-opacity="1"><g transform="translate(106.335965, 40.725549)"><g><path d="M 10.484375 -19.515625 L 8.375 -16.765625 C 8.164062 -16.515625 7.804688 -16.0625 7.296875 -15.40625 C 6.796875 -14.757812 6.421875 -14.273438 6.171875 -13.953125 L 9.140625 -9.890625 C 9.359375 -9.566406 9.84375 -8.898438 10.59375 -7.890625 L 11.890625 -9.578125 L 14.921875 -13.46875 L 12.59375 -16.609375 Z M 10.484375 -27.09375 C 11.640625 -25.65625 12.4375 -24.628906 12.875 -24.015625 C 13.914062 -22.609375 15.066406 -21.039062 16.328125 -19.3125 L 20.65625 -13.40625 L 17.734375 -9.578125 L 15.515625 -6.765625 C 15.335938 -6.472656 14.65625 -5.570312 13.46875 -4.0625 L 13.46875 -4 L 10.59375 -0.21875 C 8.394531 -3.175781 6.664062 -5.5 5.40625 -7.1875 L 1.953125 -11.890625 C 1.515625 -12.472656 1.148438 -12.976562 0.859375 -13.40625 L 0.546875 -13.84375 L 0.4375 -14 L 1.953125 -15.90625 C 3.785156 -18.351562 5.875 -21.109375 8.21875 -24.171875 C 8.507812 -24.535156 8.671875 -24.734375 8.703125 -24.765625 Z M 10.484375 -27.09375 "/></g></g></g><g fill="#004aad" fill-opacity="1"><g transform="translate(130.072814, 40.725549)"><g><path d="M 2.328125 3.03125 L -0.046875 -25.421875 L 12.4375 -14.984375 L 11.46875 -28.125 L 16.5 -28.546875 L 17.953125 -3.078125 L 5.78125 -13.25 L 6.96875 2.546875 Z M 2.328125 3.03125 "/></g></g></g></g></g></svg>